<svg width="69" height="68" viewBox="0 0 69 68" fill="none" xmlns="http://www.w3.org/2000/svg">
<g clip-path="url(#clip0_737_1462)" filter="url(#filter0_d_737_1462)">
<path d="M23.9341 23.3911C23.7741 23.0771 23.4611 22.8711 23.1101 22.8481L14.6978 22.2872C14.2619 22.2442 13.8589 22.5142 13.6998 22.9201L7.63534 38.4189C7.47233 38.8349 7.60534 39.3079 7.96135 39.5788C8.13935 39.7148 8.35334 39.7829 8.56626 39.7829C8.7772 39.7829 8.98825 39.7169 9.16626 39.5829L14.1999 35.8083L17.1307 36.3942C17.6087 36.4892 18.0866 36.2272 18.2606 35.7703C19.8346 31.6476 21.7293 27.8139 23.8901 24.3772C24.0772 24.079 24.0942 23.704 23.9341 23.3911ZM16.6986 34.2682L14.1529 33.7593C13.8749 33.7043 13.5849 33.7703 13.357 33.9402L10.7782 35.874L15.2948 24.3309L21.3323 24.7329C19.5924 27.6777 18.0386 30.8754 16.6986 34.2682Z" fill="#EF2A82"/>
<path d="M42.5836 50.174L42.0226 41.7606C41.9986 41.4086 41.7926 41.0957 41.4787 40.9357C41.1657 40.7757 40.7907 40.7916 40.4928 40.9796C37.055 43.1404 33.2223 45.0353 29.0997 46.6091C28.6437 46.7821 28.3797 47.2601 28.4758 47.739L29.0617 50.6699L25.287 55.7024C25.019 56.0604 25.0201 56.5524 25.291 56.9084C25.484 57.1623 25.781 57.3033 26.0869 57.3033C26.2089 57.3033 26.332 57.2803 26.4519 57.2363L41.9507 51.1718C42.3566 51.013 42.6126 50.6089 42.5836 50.174ZM28.9956 54.0908L30.9294 51.512C31.0995 51.285 31.1654 50.995 31.1094 50.716L30.6005 48.1712C33.9942 46.8313 37.1909 45.2774 40.1357 43.5375L40.5387 49.574L28.9956 54.0908Z" fill="#EF2A82"/>
<path d="M33.8684 30.0005H27.1309C26.768 30.0005 26.434 30.1975 26.257 30.5145L17.8006 45.7094C17.5806 46.1054 17.6545 46.6013 17.9806 46.9153C18.1716 47.0993 18.4225 47.1953 18.6745 47.1953C18.8525 47.1953 19.0315 47.1483 19.1914 47.0503L34.3863 37.8551C34.6852 37.6741 34.8683 37.3501 34.8683 37.0002V31.0005C34.8684 30.4486 34.4204 30.0005 33.8684 30.0005ZM32.8686 36.4371L21.3805 43.3896L27.718 32.0014V32.0003H32.8686V36.4371Z" fill="#EF2A82"/>
<path d="M64.8199 0.963724C64.7789 0.476815 64.393 0.0908031 63.906 0.0497879C63.574 0.0237725 30.6456 -2.27507 16.3927 35.0562C16.2517 35.4252 16.3407 35.8411 16.6197 36.1201L21.3743 40.8747C21.5973 41.0977 21.9092 41.1997 22.2222 41.1577C22.5333 41.1127 22.8052 40.9247 22.9572 40.6497L27.7209 32.0004H32.8685V36.449L24.1672 41.9426C23.9102 42.1056 23.7412 42.3756 23.7072 42.6776C23.6732 42.9796 23.7792 43.2805 23.9942 43.4956L28.7488 48.2502C28.9398 48.4412 29.1948 48.5431 29.4558 48.5431C29.5758 48.5431 29.6967 48.5222 29.8128 48.4772C67.1457 34.2232 64.848 1.29478 64.8199 0.963724ZM59.5743 18.7045C56.0655 27.3857 48.0362 39.1879 29.7026 46.3764L26.2928 42.9666L34.4022 37.847C34.6922 37.663 34.8682 37.344 34.8682 37.001V31.0014C34.8682 30.4494 34.4202 30.0014 33.8682 30.0014H27.1287C26.7638 30.0014 26.4288 30.2004 26.2527 30.5194L21.8461 38.5208L18.4934 35.167C31.0055 3.24757 57.6754 1.94164 62.86 2.01465C62.897 4.34654 62.6831 11.012 59.5743 18.7045Z" fill="#EF2A82"/>
<path d="M21.9993 44.1645C21.7822 43.8766 21.4363 43.7365 21.0973 43.7725C21.1323 43.4325 20.9923 43.0876 20.7053 42.8705C19.1975 41.7307 17.2516 41.3517 15.3648 41.8296C13.3619 42.3385 11.724 43.7044 10.8721 45.5793L4.96061 58.5853C4.78764 58.9652 4.86862 59.4123 5.16358 59.7062C5.35459 59.8982 5.61053 59.9992 5.87056 59.9992C6.0106 59.9992 6.15158 59.9692 6.28458 59.9092L19.2906 53.9967C21.1644 53.1458 22.5304 51.5079 23.0393 49.505C23.5182 47.6202 23.1393 45.6734 21.9993 44.1645ZM21.1014 49.0131C20.7434 50.424 19.7815 51.5769 18.4636 52.1769L7.88441 56.9855L12.693 46.4053C13.292 45.0875 14.4459 44.1255 15.8568 43.7676C16.2278 43.6736 16.6007 43.6275 16.9687 43.6275C17.5917 43.6275 18.2006 43.7606 18.7556 44.0195L17.8036 45.7044C17.5826 46.0954 17.6497 46.5864 17.9676 46.9034C18.2855 47.2224 18.7765 47.2883 19.1665 47.0673L20.8514 46.1144C21.2614 46.9963 21.3544 48.0151 21.1014 49.0131Z" fill="#EF2A82"/>
<path d="M64.8199 0.964812C64.7789 0.477903 64.3928 0.0918914 63.9059 0.0508761C63.5159 0.0198218 54.2466 -0.682125 43.3455 4.33954C43.0485 4.47548 42.8375 4.74946 42.7795 5.07149C42.7214 5.39352 42.8255 5.7234 43.0565 5.95437L58.9153 21.8132C59.1043 22.0022 59.3593 22.1062 59.6223 22.1062C59.6813 22.1062 59.7403 22.1011 59.7993 22.0912C60.1213 22.0332 60.3942 21.8222 60.5312 21.5252C65.5538 10.624 64.8519 1.35375 64.8199 0.964812ZM59.2983 19.3664L45.5033 5.57141C53.4837 2.20265 60.4721 1.97062 62.861 2.0107C62.9009 4.40154 62.6759 11.368 59.2983 19.3664Z" fill="#EF2A82"/>
<path d="M49.0311 15.8387C45.6683 12.4759 40.1979 12.4759 36.8351 15.8387C33.4723 19.2015 33.4723 24.672 36.8351 28.0347C38.516 29.7166 40.7248 30.5566 42.9326 30.5566C45.1415 30.5566 47.3493 29.7156 49.0311 28.0347C52.3939 24.672 52.3939 19.2013 49.0311 15.8387ZM47.6173 26.6208C45.0345 29.2035 40.8318 29.2035 38.249 26.6208C35.6663 24.038 35.6663 19.8353 38.249 17.2525C39.54 15.9616 41.2368 15.3157 42.9327 15.3157C44.6287 15.3157 46.3255 15.9616 47.6174 17.2525C50.2001 19.8353 50.2001 24.038 47.6173 26.6208Z" fill="#EF2A82"/>
<path d="M44.9206 23.925C43.8246 25.0229 42.0408 25.0219 40.9438 23.925C39.8479 22.8282 39.8479 21.0453 40.9438 19.9483C42.0398 18.8524 43.8236 18.8514 44.9206 19.9483C45.3106 20.3392 45.9445 20.3392 46.3344 19.9483C46.7254 19.5574 46.7254 18.9254 46.3344 18.5344C44.4596 16.6586 41.4058 16.6586 39.53 18.5344C37.6541 20.4102 37.6541 23.4631 39.53 25.3389C40.4679 26.2768 41.7009 26.7458 42.9327 26.7458C44.1656 26.7458 45.3975 26.2768 46.3344 25.3389C46.7254 24.9479 46.7254 24.316 46.3344 23.925C45.9444 23.5341 45.3106 23.5341 44.9206 23.925Z" fill="#EF2A82"/>
</g>
<defs>
<filter id="filter0_d_737_1462" x="0.870605" y="0" width="68" height="68" filterUnits="userSpaceOnUse" color-interpolation-filters="sRGB">
<feFlood flood-opacity="0" result="BackgroundImageFix"/>
<feColorMatrix in="SourceAlpha" type="matrix" values="0 0 0 0 0 0 0 0 0 0 0 0 0 0 0 0 0 0 127 0" result="hardAlpha"/>
<feOffset dy="4"/>
<feGaussianBlur stdDeviation="2"/>
<feComposite in2="hardAlpha" operator="out"/>
<feColorMatrix type="matrix" values="0 0 0 0 0 0 0 0 0 0 0 0 0 0 0 0 0 0 0.25 0"/>
<feBlend mode="normal" in2="BackgroundImageFix" result="effect1_dropShadow_737_1462"/>
<feBlend mode="normal" in="SourceGraphic" in2="effect1_dropShadow_737_1462" result="shape"/>
</filter>
<clipPath id="clip0_737_1462">
<rect width="60" height="60" fill="white" transform="translate(4.87061)"/>
</clipPath>
</defs>
</svg>
